<svg width="28" height="28" viewBox="0 0 28 28" fill="none" xmlns="http://www.w3.org/2000/svg">
<g clip-path="url(#clip0_346_920)">
<rect width="28" height="28" rx="6.125" fill="#292929"></rect>
<g clip-path="url(#clip1_346_920)">
<path d="M14.0002 13.5674C15.3939 13.5674 16.7074 13.9921 17.8645 14.7422C18.3039 15.027 18.8646 15.0608 19.3459 14.8545C20.0218 14.5649 20.7412 14.4082 21.4875 14.4082C25.4174 14.4084 28.6027 18.7305 28.6028 24.0615C28.6028 29.3926 25.4175 33.7146 21.4875 33.7148C20.7547 33.7148 20.048 33.563 19.3831 33.2832C18.9011 33.0805 18.3416 33.1173 17.9045 33.4043C16.7378 34.1708 15.41 34.6064 14.0002 34.6064C12.5903 34.6064 11.262 34.1709 10.095 33.4043C9.65788 33.1173 9.09843 33.0805 8.61646 33.2832C7.95187 33.563 7.24553 33.7148 6.51294 33.7148C2.58287 33.7148 -0.603271 29.3927 -0.603271 24.0615C-0.603218 18.7304 2.5829 14.4082 6.51294 14.4082C7.25883 14.4082 7.97734 14.5651 8.65259 14.8545C9.13387 15.0608 9.69463 15.027 10.134 14.7422C11.2917 13.9918 12.6061 13.5674 14.0002 13.5674Z" fill="white"></path>
<path d="M14.0002 13.5674C15.3939 13.5674 16.7074 13.9921 17.8645 14.7422C18.3039 15.027 18.8646 15.0608 19.3459 14.8545C20.0218 14.5649 20.7412 14.4082 21.4875 14.4082C25.4174 14.4084 28.6027 18.7305 28.6028 24.0615C28.6028 29.3926 25.4175 33.7146 21.4875 33.7148C20.7547 33.7148 20.048 33.563 19.3831 33.2832C18.9011 33.0805 18.3416 33.1173 17.9045 33.4043C16.7378 34.1708 15.41 34.6064 14.0002 34.6064C12.5903 34.6064 11.262 34.1709 10.095 33.4043C9.65788 33.1173 9.09843 33.0805 8.61646 33.2832C7.95187 33.563 7.24553 33.7148 6.51294 33.7148C2.58287 33.7148 -0.603271 29.3927 -0.603271 24.0615C-0.603218 18.7304 2.5829 14.4082 6.51294 14.4082C7.25883 14.4082 7.97734 14.5651 8.65259 14.8545C9.13387 15.0608 9.69463 15.027 10.134 14.7422C11.2917 13.9918 12.6061 13.5674 14.0002 13.5674Z" fill="#FF7300"></path>
</g>
<g clip-path="url(#clip2_346_920)">
<path d="M12.1656 8.50098C13.4092 9.55944 14.2281 10.7659 14.7457 11.7402C14.9481 12.1212 15.1055 12.4722 15.2281 12.7715C14.8537 12.7135 14.4715 12.6836 14.0836 12.6836C13.3766 12.6836 12.6899 12.7844 12.0318 12.9717C11.5886 12.1784 10.9121 11.2528 9.91171 10.4971L9.80722 10.4199L9.0748 9.88672L12.1656 8.50098Z" fill="#45FFB8"></path>
<path d="M14.146 13.4512C15.5396 13.4512 16.8531 13.8759 18.0102 14.626C18.4496 14.9108 19.0103 14.9444 19.4917 14.7383C20.1675 14.449 20.8869 14.293 21.6333 14.293C25.5631 14.2931 28.7494 18.6143 28.7495 23.9453C28.7495 29.2764 25.5632 33.5985 21.6333 33.5986C20.9004 33.5986 20.1936 33.4468 19.5288 33.167C19.0468 32.9643 18.4873 33.0011 18.0502 33.2881C16.8835 34.0546 15.5557 34.4902 14.146 34.4902C12.7359 34.4902 11.4077 34.0548 10.2407 33.2881C9.80359 33.0011 9.24414 32.9643 8.76216 33.167C8.09758 33.4467 7.39126 33.5986 6.65865 33.5986C2.72857 33.5986 -0.457565 29.2765 -0.457565 23.9453C-0.457454 18.6142 2.72864 14.293 6.65865 14.293C7.40495 14.293 8.12374 14.4497 8.79927 14.7393C9.2806 14.9456 9.84131 14.9119 10.2807 14.627C11.4381 13.8764 12.7519 13.4512 14.146 13.4512Z" fill="white"></path>
<path d="M14.146 13.4512C15.5396 13.4512 16.8531 13.8759 18.0102 14.626C18.4496 14.9108 19.0103 14.9444 19.4917 14.7383C20.1675 14.449 20.8869 14.293 21.6333 14.293C25.5631 14.2931 28.7494 18.6143 28.7495 23.9453C28.7495 29.2764 25.5632 33.5985 21.6333 33.5986C20.9004 33.5986 20.1936 33.4468 19.5288 33.167C19.0468 32.9643 18.4873 33.0011 18.0502 33.2881C16.8835 34.0546 15.5557 34.4902 14.146 34.4902C12.7359 34.4902 11.4077 34.0548 10.2407 33.2881C9.80359 33.0011 9.24414 32.9643 8.76216 33.167C8.09758 33.4467 7.39126 33.5986 6.65865 33.5986C2.72857 33.5986 -0.457565 29.2765 -0.457565 23.9453C-0.457454 18.6142 2.72864 14.293 6.65865 14.293C7.40495 14.293 8.12374 14.4497 8.79927 14.7393C9.2806 14.9456 9.84131 14.9119 10.2807 14.627C11.4381 13.8764 12.7519 13.4512 14.146 13.4512Z" fill="#FF7300"></path>
</g>
<circle cx="10.2873" cy="19.1094" r="2.47514" fill="white"></circle>
<circle cx="10.6743" cy="18.4132" r="1.54696" fill="black"></circle>
<circle cx="17.7128" cy="19.0318" r="2.47514" fill="white"></circle>
<circle cx="18.0994" cy="18.3355" r="1.54696" fill="black"></circle>
</g>
<rect x="0.25" y="0.25" width="27.5" height="27.5" rx="5.875" stroke="white" stroke-opacity="0.1" stroke-width="0.5"></rect>
<defs>
<clipPath id="clip0_346_920">
<rect width="28" height="28" rx="6.125" fill="white"></rect>
</clipPath>
<clipPath id="clip1_346_920">
<rect width="29.2066" height="29.2066" fill="white" transform="translate(-0.603271 7.50342)"></rect>
</clipPath>
<clipPath id="clip2_346_920">
<rect width="29.2066" height="29.2066" fill="white" transform="translate(-0.457664 7.38672)"></rect>
</clipPath>
</defs>
</svg>