<svg width="32" height="32" viewBox="0 0 32 32" fill="none" xmlns="http://www.w3.org/2000/svg">
<path d="M16 3C22.9036 3 28.5 8.59644 28.5 15.5C28.5 22.4036 22.9036 28 16 28C9.09644 28 3.5 22.4036 3.5 15.5C3.5 8.59644 9.09644 3 16 3ZM16 11C15.4477 11 15 11.4477 15 12V15H12C11.4477 15 11 15.4477 11 16C11 16.5523 11.4477 17 12 17H15V20C15 20.5523 15.4477 21 16 21C16.5523 21 17 20.5523 17 20V17H20C20.5523 17 21 16.5523 21 16C21 15.4477 20.5523 15 20 15H17V12C17 11.4477 16.5523 11 16 11Z" fill="#7C7A83"></path>
</svg>