<svg width="22" height="22" viewBox="0 0 22 22" fill="none" xmlns="http://www.w3.org/2000/svg">
<path d="M17.875 2.75H4.125C3.76033 2.75 3.41059 2.89487 3.15273 3.15273C2.89487 3.41059 2.75 3.76033 2.75 4.125V17.875C2.75 18.2397 2.89487 18.5894 3.15273 18.8473C3.41059 19.1051 3.76033 19.25 4.125 19.25H17.875C18.2397 19.25 18.5894 19.1051 18.8473 18.8473C19.1051 18.5894 19.25 18.2397 19.25 17.875V4.125C19.25 3.76033 19.1051 3.41059 18.8473 3.15273C18.5894 2.89487 18.2397 2.75 17.875 2.75ZM4.125 4.125H17.875V10.7748L15.7532 8.65219C15.4954 8.39452 15.1458 8.24978 14.7812 8.24978C14.4167 8.24978 14.0671 8.39452 13.8093 8.65219L4.58648 17.875H4.125V4.125ZM6.875 8.25C6.875 7.97805 6.95564 7.71221 7.10673 7.48609C7.25782 7.25997 7.47256 7.08374 7.72381 6.97967C7.97506 6.8756 8.25153 6.84837 8.51825 6.90142C8.78497 6.95447 9.02997 7.08543 9.22227 7.27773C9.41457 7.47003 9.54553 7.71503 9.59858 7.98175C9.65163 8.24847 9.6244 8.52494 9.52033 8.77619C9.41626 9.02744 9.24003 9.24218 9.01391 9.39327C8.78779 9.54436 8.52195 9.625 8.25 9.625C7.88533 9.625 7.53559 9.48013 7.27773 9.22227C7.01987 8.96441 6.875 8.61467 6.875 8.25Z" fill="white"></path>
</svg>