<svg width="22" height="22" viewBox="0 0 22 22" fill="none" xmlns="http://www.w3.org/2000/svg">
<path d="M17.875 4.8125H15.4928L14.3215 3.05594C14.2587 2.96188 14.1737 2.88475 14.0741 2.83139C13.9744 2.77802 13.8631 2.75007 13.75 2.75H8.25C8.13693 2.75007 8.02562 2.77802 7.92594 2.83139C7.82625 2.88475 7.74127 2.96188 7.67852 3.05594L6.50633 4.8125H4.125C3.57799 4.8125 3.05339 5.0298 2.66659 5.41659C2.2798 5.80339 2.0625 6.32799 2.0625 6.875V16.5C2.0625 17.047 2.2798 17.5716 2.66659 17.9584C3.05339 18.3452 3.57799 18.5625 4.125 18.5625H17.875C18.422 18.5625 18.9466 18.3452 19.3334 17.9584C19.7202 17.5716 19.9375 17.047 19.9375 16.5V6.875C19.9375 6.32799 19.7202 5.80339 19.3334 5.41659C18.9466 5.0298 18.422 4.8125 17.875 4.8125ZM13.4759 14.3C12.7116 14.869 11.7746 15.1571 10.8228 15.116C9.87087 15.0748 8.96226 14.7068 8.25 14.074V14.4375C8.25 14.6198 8.17757 14.7947 8.04864 14.9236C7.9197 15.0526 7.74484 15.125 7.5625 15.125C7.38016 15.125 7.2053 15.0526 7.07636 14.9236C6.94743 14.7947 6.875 14.6198 6.875 14.4375V12.375C6.875 12.1927 6.94743 12.0178 7.07636 11.8889C7.2053 11.7599 7.38016 11.6875 7.5625 11.6875H9.625C9.80734 11.6875 9.9822 11.7599 10.1111 11.8889C10.2401 12.0178 10.3125 12.1927 10.3125 12.375C10.3125 12.5573 10.2401 12.7322 10.1111 12.8611C9.9822 12.9901 9.80734 13.0625 9.625 13.0625H9.18242C9.65731 13.4786 10.2605 13.7192 10.8913 13.7444C11.5222 13.7696 12.1426 13.5777 12.6491 13.2009C12.7949 13.0912 12.9782 13.044 13.1588 13.0695C13.3394 13.0951 13.5024 13.1913 13.6121 13.3371C13.7217 13.4828 13.7689 13.6662 13.7434 13.8467C13.7178 14.0273 13.6216 14.1904 13.4759 14.3ZM15.125 10.3125C15.125 10.4948 15.0526 10.6697 14.9236 10.7986C14.7947 10.9276 14.6198 11 14.4375 11H12.375C12.1927 11 12.0178 10.9276 11.8889 10.7986C11.7599 10.6697 11.6875 10.4948 11.6875 10.3125C11.6875 10.1302 11.7599 9.9553 11.8889 9.82636C12.0178 9.69743 12.1927 9.625 12.375 9.625H12.8176C12.3427 9.20895 11.7395 8.96827 11.1087 8.94309C10.4778 8.91791 9.85739 9.10976 9.35086 9.48664C9.2051 9.59627 9.02177 9.64351 8.84118 9.61796C8.6606 9.59242 8.49756 9.49618 8.38793 9.35043C8.2783 9.20467 8.23106 9.02134 8.25661 8.84075C8.28215 8.66017 8.37839 8.49713 8.52414 8.3875C9.28838 7.81853 10.2254 7.53036 11.1772 7.57153C12.1291 7.6127 13.0377 7.98069 13.75 8.61352V8.25C13.75 8.06766 13.8224 7.8928 13.9514 7.76386C14.0803 7.63493 14.2552 7.5625 14.4375 7.5625C14.6198 7.5625 14.7947 7.63493 14.9236 7.76386C15.0526 7.8928 15.125 8.06766 15.125 8.25V10.3125Z" fill="white"></path>
</svg>