<svg width="24" height="24" viewBox="0 0 24 24" fill="none" xmlns="http://www.w3.org/2000/svg">
<path d="M18.875 5.75H5.12499C4.79347 5.75 4.47553 5.8817 4.24111 6.11612C4.00669 6.35054 3.87499 6.66848 3.87499 7V19.5C3.87358 19.7383 3.94093 19.9719 4.06898 20.1728C4.19702 20.3737 4.38031 20.5335 4.59687 20.6328C4.76235 20.7096 4.94254 20.7496 5.12499 20.75C5.41843 20.7493 5.70214 20.6447 5.92577 20.4547L5.9328 20.4492L8.48437 18.25H18.875C19.2065 18.25 19.5245 18.1183 19.7589 17.8839C19.9933 17.6495 20.125 17.3315 20.125 17V7C20.125 6.66848 19.9933 6.35054 19.7589 6.11612C19.5245 5.8817 19.2065 5.75 18.875 5.75ZM18.875 17H8.24999C8.09992 17.0001 7.95489 17.0542 7.8414 17.1523L5.12499 19.5V7H18.875V17ZM8.87499 10.75C8.87499 10.5842 8.94084 10.4253 9.05805 10.3081C9.17526 10.1908 9.33423 10.125 9.49999 10.125H14.5C14.6658 10.125 14.8247 10.1908 14.9419 10.3081C15.0591 10.4253 15.125 10.5842 15.125 10.75C15.125 10.9158 15.0591 11.0747 14.9419 11.1919C14.8247 11.3092 14.6658 11.375 14.5 11.375H9.49999C9.33423 11.375 9.17526 11.3092 9.05805 11.1919C8.94084 11.0747 8.87499 10.9158 8.87499 10.75ZM8.87499 13.25C8.87499 13.0842 8.94084 12.9253 9.05805 12.8081C9.17526 12.6908 9.33423 12.625 9.49999 12.625H14.5C14.6658 12.625 14.8247 12.6908 14.9419 12.8081C15.0591 12.9253 15.125 13.0842 15.125 13.25C15.125 13.4158 15.0591 13.5747 14.9419 13.6919C14.8247 13.8092 14.6658 13.875 14.5 13.875H9.49999C9.33423 13.875 9.17526 13.8092 9.05805 13.6919C8.94084 13.5747 8.87499 13.4158 8.87499 13.25Z" fill="#999999"></path>
</svg>