<svg width="24" height="24" viewBox="0 0 24 24" fill="none" xmlns="http://www.w3.org/2000/svg">
<path d="M20.7359 14.2656L19.7984 6.76563C19.7413 6.31241 19.5208 5.89562 19.1781 5.59354C18.8354 5.29145 18.3943 5.12484 17.9375 5.125H4.5C4.16848 5.125 3.85054 5.2567 3.61612 5.49112C3.3817 5.72554 3.25 6.04348 3.25 6.375V13.25C3.25 13.5815 3.3817 13.8995 3.61612 14.1339C3.85054 14.3683 4.16848 14.5 4.5 14.5H7.86406L10.8156 20.4047C10.8676 20.5085 10.9474 20.5958 11.0462 20.6568C11.145 20.7178 11.2589 20.7501 11.375 20.75C12.2038 20.75 12.9987 20.4208 13.5847 19.8347C14.1708 19.2487 14.5 18.4538 14.5 17.625V16.375H18.875C19.1411 16.3751 19.4041 16.3186 19.6467 16.2091C19.8892 16.0997 20.1057 15.94 20.2817 15.7404C20.4577 15.5409 20.5892 15.3062 20.6676 15.0519C20.7459 14.7976 20.7692 14.5296 20.7359 14.2656ZM7.625 13.25H4.5V6.375H7.625V13.25ZM19.3438 14.9133C19.2855 14.9803 19.2135 15.0339 19.1325 15.0704C19.0516 15.107 18.9638 15.1256 18.875 15.125H13.875C13.7092 15.125 13.5503 15.1908 13.4331 15.3081C13.3158 15.4253 13.25 15.5842 13.25 15.75V17.625C13.2501 18.0585 13.1 18.4787 12.8253 18.814C12.5505 19.1493 12.168 19.379 11.743 19.4641L8.875 13.7273V6.375H17.9375C18.0898 6.37495 18.2368 6.43048 18.351 6.53118C18.4653 6.63187 18.5388 6.7708 18.5578 6.92188L19.4953 14.4219C19.507 14.5099 19.4995 14.5994 19.4734 14.6842C19.4472 14.769 19.403 14.8472 19.3438 14.9133Z" fill="#999999"></path>
</svg>