<svg width="78" height="44" viewBox="0 0 78 44" fill="none" xmlns="http://www.w3.org/2000/svg">
<circle cx="39.5" cy="22" r="13.6" stroke="white" stroke-opacity="0.5" stroke-width="0.8"></circle>
<path d="M45.254 18.73V22.524H45.996V23.868H42.818C43.518 25.044 44.61 25.968 46.094 26.654L45.436 28.04C43.714 27.06 42.454 25.814 41.656 24.274C41.012 25.73 39.71 26.99 37.778 28.04L36.826 26.808C38.506 26.024 39.654 25.044 40.27 23.868H37.316V22.524H38.17V19.108L37.414 18.114V18.828H36.14V21.11C36.588 20.886 37.022 20.662 37.456 20.424V21.908C37.008 22.146 36.574 22.37 36.14 22.566V26.36C36.14 27.312 35.664 27.802 34.726 27.802H33.522L33.2 26.416C33.564 26.472 33.9 26.5 34.222 26.5C34.53 26.5 34.684 26.318 34.684 25.982V23.182C34.208 23.364 33.746 23.532 33.27 23.7L32.892 22.216C33.494 22.076 34.096 21.908 34.684 21.698V18.828H33.172V17.414H34.684V15.02H36.14V17.414H37.414V18.058C38.744 17.204 39.654 16.154 40.13 14.922L41.544 15.104C41.432 15.384 41.32 15.664 41.194 15.93H43.966V16.966C43.63 17.638 43.308 18.226 42.972 18.73H45.254ZM39.458 22.524H40.732C40.872 21.796 40.956 20.956 40.984 20.004H39.458V22.524ZM42.132 22.524H43.966V20.004H42.342C42.314 20.984 42.244 21.824 42.132 22.524ZM41.488 18.73C41.796 18.282 42.118 17.75 42.454 17.162H40.452C40.018 17.722 39.5 18.254 38.912 18.73H41.488Z" fill="#FF7300"></path>
<path d="M53.5 21.667L72.9453 21.667L70.2783 19" stroke="white" stroke-opacity="0.5" stroke-width="0.8"></path>
<path d="M25.4453 21.667L6 21.667L8.66698 19" stroke="white" stroke-opacity="0.5" stroke-width="0.8"></path>
</svg>