<svg width="32" height="32" viewBox="0 0 32 32" fill="none" xmlns="http://www.w3.org/2000/svg">
<path d="M26.5 15.1252V25.6252C26.5 25.8572 26.4078 26.0798 26.2437 26.2439C26.0796 26.408 25.8571 26.5002 25.625 26.5002H19.5C19.2679 26.5002 19.0454 26.408 18.8813 26.2439C18.7172 26.0798 18.625 25.8572 18.625 25.6252V19.9377C18.625 19.8216 18.5789 19.7104 18.4969 19.6283C18.4148 19.5463 18.3035 19.5002 18.1875 19.5002H13.8125C13.6965 19.5002 13.5852 19.5463 13.5031 19.6283C13.4211 19.7104 13.375 19.8216 13.375 19.9377V25.6252C13.375 25.8572 13.2828 26.0798 13.1187 26.2439C12.9546 26.408 12.7321 26.5002 12.5 26.5002H6.375C6.14294 26.5002 5.92038 26.408 5.75628 26.2439C5.59219 26.0798 5.5 25.8572 5.5 25.6252V15.1252C5.50022 14.6611 5.68473 14.2162 6.01297 13.8881L14.763 5.13813C15.0911 4.81019 15.5361 4.62598 16 4.62598C16.4639 4.62598 16.9089 4.81019 17.237 5.13813L25.987 13.8881C26.3153 14.2162 26.4998 14.6611 26.5 15.1252Z" fill="#7C7A83"></path>
</svg>