<svg width="24" height="24" viewBox="0 0 24 24" fill="none" xmlns="http://www.w3.org/2000/svg">
<path d="M20.2812 8.25938C20.1053 8.05994 19.8888 7.90023 19.6464 7.79086C19.4039 7.68148 19.141 7.62495 18.875 7.625H14.5V6.375C14.5 5.5462 14.1708 4.75134 13.5847 4.16529C12.9987 3.57924 12.2038 3.25 11.375 3.25C11.2589 3.24992 11.145 3.28218 11.0462 3.34317C10.9474 3.40417 10.8676 3.49148 10.8156 3.59531L7.86406 9.5H4.5C4.16848 9.5 3.85054 9.6317 3.61612 9.86612C3.3817 10.1005 3.25 10.4185 3.25 10.75V17.625C3.25 17.9565 3.3817 18.2745 3.61612 18.5089C3.85054 18.7433 4.16848 18.875 4.5 18.875H17.9375C18.3943 18.8752 18.8354 18.7085 19.1781 18.4065C19.5208 18.1044 19.7413 17.6876 19.7984 17.2344L20.7359 9.73438C20.7692 9.47033 20.7458 9.20224 20.6674 8.94792C20.589 8.6936 20.4574 8.45888 20.2812 8.25938ZM4.5 10.75H7.625V17.625H4.5V10.75ZM19.4953 9.57812L18.5578 17.0781C18.5388 17.2292 18.4652 17.3681 18.351 17.4688C18.2368 17.5695 18.0898 17.6251 17.9375 17.625H8.875V10.2727L11.743 4.53594C12.168 4.62101 12.5505 4.85075 12.8253 5.18605C13.1 5.52135 13.2501 5.9415 13.25 6.375V8.25C13.25 8.41576 13.3158 8.57473 13.4331 8.69194C13.5503 8.80915 13.7092 8.875 13.875 8.875H18.875C18.9637 8.87497 19.0514 8.89382 19.1322 8.93029C19.2131 8.96675 19.2852 9.02001 19.3439 9.08652C19.4026 9.15303 19.4464 9.23126 19.4725 9.31602C19.4986 9.40078 19.5064 9.49013 19.4953 9.57812Z" fill="#999999"></path>
</svg>