<svg width="32" height="32" viewBox="0 0 32 32" fill="none" xmlns="http://www.w3.org/2000/svg">
<path d="M16.9375 4.625C14.0377 4.62818 11.2575 5.78155 9.20704 7.83204C7.15655 9.88253 6.00318 12.6627 6 15.5625V24.75C6 25.2141 6.18437 25.6592 6.51256 25.9874C6.84075 26.3156 7.28587 26.5 7.75 26.5H16.9375C19.8383 26.5 22.6203 25.3477 24.6715 23.2965C26.7227 21.2453 27.875 18.4633 27.875 15.5625C27.875 12.6617 26.7227 9.8797 24.6715 7.82852C22.6203 5.77734 19.8383 4.625 16.9375 4.625ZM12.125 17.3125C11.8654 17.3125 11.6117 17.2355 11.3958 17.0913C11.18 16.9471 11.0117 16.7421 10.9124 16.5023C10.8131 16.2624 10.7871 15.9985 10.8377 15.7439C10.8884 15.4893 11.0134 15.2555 11.1969 15.0719C11.3805 14.8884 11.6143 14.7634 11.8689 14.7127C12.1235 14.6621 12.3874 14.6881 12.6273 14.7874C12.8671 14.8867 13.0721 15.055 13.2163 15.2708C13.3605 15.4867 13.4375 15.7404 13.4375 16C13.4375 16.3481 13.2992 16.6819 13.0531 16.9281C12.8069 17.1742 12.4731 17.3125 12.125 17.3125ZM16.9375 17.3125C16.6779 17.3125 16.4242 17.2355 16.2083 17.0913C15.9925 16.9471 15.8242 16.7421 15.7249 16.5023C15.6256 16.2624 15.5996 15.9985 15.6502 15.7439C15.7009 15.4893 15.8259 15.2555 16.0094 15.0719C16.193 14.8884 16.4268 14.7634 16.6814 14.7127C16.936 14.6621 17.1999 14.6881 17.4398 14.7874C17.6796 14.8867 17.8846 15.055 18.0288 15.2708C18.173 15.4867 18.25 15.7404 18.25 16C18.25 16.3481 18.1117 16.6819 17.8656 16.9281C17.6194 17.1742 17.2856 17.3125 16.9375 17.3125ZM21.75 17.3125C21.4904 17.3125 21.2367 17.2355 21.0208 17.0913C20.805 16.9471 20.6367 16.7421 20.5374 16.5023C20.4381 16.2624 20.4121 15.9985 20.4627 15.7439C20.5134 15.4893 20.6384 15.2555 20.8219 15.0719C21.0055 14.8884 21.2393 14.7634 21.4939 14.7127C21.7485 14.6621 22.0124 14.6881 22.2523 14.7874C22.4921 14.8867 22.6971 15.055 22.8413 15.2708C22.9855 15.4867 23.0625 15.7404 23.0625 16C23.0625 16.3481 22.9242 16.6819 22.6781 16.9281C22.4319 17.1742 22.0981 17.3125 21.75 17.3125Z" fill="#7C7A83"></path>
</svg>