<svg width="32" height="32" viewBox="0 0 32 32" fill="none" xmlns="http://www.w3.org/2000/svg">
<path d="M27.758 26.0625C27.6811 26.1956 27.5707 26.3061 27.4376 26.3829C27.3045 26.4597 27.1536 26.5001 27 26.5H5.99999C5.84647 26.4999 5.69569 26.4593 5.5628 26.3825C5.42991 26.3056 5.31958 26.1951 5.24289 26.0622C5.1662 25.9292 5.12585 25.7783 5.12589 25.6248C5.12592 25.4713 5.16635 25.3205 5.24311 25.1875C6.90889 22.3077 9.47593 20.2427 12.4717 19.2638C10.9899 18.3816 9.83855 17.0374 9.1946 15.4376C8.55064 13.8378 8.44964 12.0709 8.90711 10.4081C9.36458 8.74533 10.3552 7.2787 11.7269 6.23343C13.0986 5.18817 14.7754 4.62207 16.5 4.62207C18.2245 4.62207 19.9014 5.18817 21.2731 6.23343C22.6448 7.2787 23.6354 8.74533 24.0929 10.4081C24.5503 12.0709 24.4493 13.8378 23.8054 15.4376C23.1614 17.0374 22.0101 18.3816 20.5283 19.2638C23.5241 20.2427 26.0911 22.3077 27.7569 25.1875C27.8338 25.3205 27.8744 25.4713 27.8746 25.6249C27.8748 25.7785 27.8346 25.9294 27.758 26.0625Z" fill="#7C7A83"></path>
</svg>