<svg width="28" height="28" viewBox="0 0 28 28" fill="none" xmlns="http://www.w3.org/2000/svg">
<path d="M25.946 16.6135V16.6026C25.9441 16.5944 25.9416 16.5863 25.9384 16.5785C25.8657 16.3804 25.7814 16.1869 25.6857 15.9988L21.139 5.66508C21.0952 5.56554 21.0333 5.47504 20.9563 5.3982C20.6313 5.07311 20.2454 4.81523 19.8207 4.63929C19.3961 4.46335 18.9409 4.37279 18.4812 4.37279C18.0215 4.37279 17.5663 4.46335 17.1416 4.63929C16.7169 4.81523 16.331 5.07311 16.006 5.3982C15.8425 5.5619 15.7505 5.7837 15.7501 6.01508V8.74945H12.2501V6.01508C12.2502 5.90014 12.2276 5.7863 12.1837 5.68008C12.1398 5.57386 12.0754 5.47733 11.9941 5.39601C11.6691 5.07092 11.2832 4.81304 10.8586 4.6371C10.4339 4.46116 9.97867 4.37061 9.51898 4.37061C9.05928 4.37061 8.60409 4.46116 8.1794 4.6371C7.75471 4.81304 7.36884 5.07092 7.04382 5.39601C6.96688 5.47285 6.90494 5.56335 6.86116 5.66289L2.31882 15.9988C2.22314 16.1869 2.13877 16.3804 2.06616 16.5785C2.06312 16.586 2.06056 16.5937 2.05851 16.6015C2.05851 16.6015 2.05851 16.6102 2.05851 16.6135C1.60678 17.9187 1.6876 19.3494 2.28345 20.5955C2.8793 21.8415 3.94219 22.8026 5.24175 23.2703C6.54132 23.7381 7.97287 23.6749 9.22617 23.0944C10.4795 22.514 11.4535 21.463 11.9373 20.1693C12.1502 19.5882 12.2577 18.9737 12.2544 18.3548V10.4995H15.7544V18.3559C15.7512 18.9748 15.8586 19.5893 16.0716 20.1704C16.5554 21.4641 17.5294 22.5151 18.7827 23.0955C20.036 23.676 21.4676 23.7392 22.7671 23.2714C24.0667 22.8037 25.1296 21.8426 25.7254 20.5966C26.3213 19.3505 26.4021 17.9198 25.9504 16.6146L25.946 16.6135ZM10.289 19.5666C9.96587 20.4288 9.31605 21.1289 8.48034 21.5153C7.64463 21.9016 6.69033 21.9431 5.82423 21.6308C4.95812 21.3184 4.24997 20.6774 3.85322 19.8466C3.45647 19.0157 3.40307 18.062 3.7046 17.1921L3.90257 16.7404C4.26643 16.0487 4.85131 15.4988 5.56401 15.1781C6.2767 14.8575 7.07622 14.7846 7.83516 14.971C8.5941 15.1575 9.26881 15.5926 9.75176 16.207C10.2347 16.8214 10.4981 17.5798 10.5001 18.3613V18.3745C10.5 18.7826 10.4286 19.1875 10.289 19.571V19.5666ZM22.2032 21.6634C21.6741 21.857 21.1061 21.9201 20.5475 21.8473C19.9888 21.7744 19.456 21.5678 18.9943 21.2449C18.5326 20.922 18.1557 20.4925 17.8955 19.9927C17.6354 19.493 17.4997 18.9378 17.5001 18.3745V18.3624C17.503 17.5813 17.7671 16.8236 18.2504 16.2099C18.7337 15.5962 19.4084 15.1618 20.1671 14.9759C20.9258 14.79 21.7249 14.8633 22.4371 15.184C23.1494 15.5048 23.7339 16.0545 24.0976 16.7459L24.2955 17.1976C24.6068 18.0674 24.5614 19.025 24.1695 19.8616C23.7775 20.6981 23.0707 21.3458 22.2032 21.6634Z" fill="white" fill-opacity="0.5"></path>
</svg>