<svg width="28" height="28" viewBox="0 0 28 28" fill="none" xmlns="http://www.w3.org/2000/svg">
<g clip-path="url(#clip0_383_1020)">
<g clip-path="url(#clip1_383_1020)">
<path d="M24.7956 13.5385C24.9287 13.8323 24.9287 14.1692 24.7956 14.463C24.6428 14.8001 24.1824 15.0557 23.2618 15.5672L9.91509 22.9822C8.60139 23.7121 7.94444 24.0769 7.40685 24.0142C6.93777 23.9594 6.51332 23.7097 6.23763 23.3262C5.92169 22.8868 5.92153 22.1354 5.92153 20.6326L5.92153 19.6556C5.92153 19.4277 5.9216 19.3137 5.89966 19.2044C5.88018 19.1075 5.84809 19.0134 5.80396 18.925C5.75423 18.8253 5.68409 18.7354 5.54419 18.5556L5.23828 18.1622C4.57833 17.3136 4.24835 16.8893 4.2421 16.5155C4.23665 16.1899 4.37324 15.878 4.61627 15.6611C4.89518 15.4122 5.43078 15.367 6.50199 15.2765L16.3187 14.447C17.7284 14.3279 18.4332 14.2684 18.5081 14.1575C18.5722 14.0627 18.5722 13.9385 18.5082 13.8438C18.4332 13.7329 17.7284 13.6733 16.3187 13.5542L6.50232 12.7246C5.43109 12.6341 4.89548 12.5888 4.61658 12.3399C4.37355 12.1231 4.23697 11.8112 4.24243 11.4855C4.24869 11.1117 4.57868 10.6874 5.23867 9.83884L5.54419 9.446C5.68412 9.26609 5.75423 9.176 5.80396 9.07631C5.84805 8.9879 5.88019 8.894 5.89966 8.79713C5.92161 8.68791 5.92153 8.57392 5.92153 8.34596L5.92153 7.36897C5.92153 5.86618 5.9217 5.1148 6.23763 4.67534C6.51332 4.2919 6.93777 4.04215 7.40685 3.98737C7.94444 3.92464 8.60139 4.28949 9.91509 5.01932L23.2618 12.4344C24.1824 12.9458 24.6428 13.2015 24.7956 13.5385Z" fill="white"></path>
</g>
</g>
<defs>
<clipPath id="clip0_383_1020">
<rect width="28" height="28" fill="white"></rect>
</clipPath>
<clipPath id="clip1_383_1020">
<rect width="28" height="28" fill="white" transform="translate(28) rotate(90)"></rect>
</clipPath>
</defs>
</svg>