<svg width="44" height="44" viewBox="0 0 44 44" fill="none" xmlns="http://www.w3.org/2000/svg">
<rect width="44" height="44" rx="22" fill="#4D4D4D"></rect>
<g clip-path="url(#clip0_352_138)">
<path d="M28.0966 15.9027C28.5847 16.3908 28.5846 17.1823 28.0966 17.6704L23.7676 21.9994L28.0973 26.329C28.5849 26.8172 28.5853 27.6088 28.0973 28.0968C27.6093 28.5847 26.8177 28.5844 26.3295 28.0968L21.9999 23.7672L17.6709 28.0961C17.1827 28.5841 16.3912 28.5842 15.9031 28.0961C15.4153 27.608 15.4152 26.8164 15.9031 26.3284L20.2321 21.9994L15.9038 17.6711C15.4157 17.183 15.4158 16.3915 15.9038 15.9034C16.392 15.4152 17.1834 15.4152 17.6716 15.9034L21.9999 20.2316L26.3288 15.9027C26.8169 15.4148 27.6085 15.4148 28.0966 15.9027Z" fill="white"></path>
</g>
<defs>
<clipPath id="clip0_352_138">
<rect width="24" height="24" fill="white" transform="translate(10 10)"></rect>
</clipPath>
</defs>
</svg>