<svg width="36" height="36" viewBox="0 0 36 36" fill="none" xmlns="http://www.w3.org/2000/svg">
<rect width="36" height="36" rx="18" fill="black" fill-opacity="0.2"></rect>
<path d="M22.2955 27.4019C22.2955 27.5937 22.22 27.7776 22.0858 27.9132C21.9515 28.0488 21.7694 28.125 21.5796 28.125H14.4205C14.2307 28.125 14.0486 28.0488 13.9143 27.9132C13.7801 27.7776 13.7046 27.5937 13.7046 27.4019C13.7046 27.2101 13.7801 27.0261 13.9143 26.8905C14.0486 26.7549 14.2307 26.6787 14.4205 26.6787H21.5796C21.7694 26.6787 21.9515 26.7549 22.0858 26.8905C22.22 27.0261 22.2955 27.2101 22.2955 27.4019ZM25.875 15.8318C25.8781 17.0373 25.6085 18.2275 25.0867 19.3117C24.565 20.396 23.805 21.3455 22.8646 22.0878C22.6888 22.2239 22.5461 22.3988 22.4474 22.5992C22.3488 22.7996 22.2968 23.0201 22.2955 23.2439V23.7862C22.2955 24.1698 22.1446 24.5376 21.8761 24.8089C21.6076 25.0801 21.2434 25.2325 20.8637 25.2325H15.1364C14.7567 25.2325 14.3925 25.0801 14.124 24.8089C13.8555 24.5376 13.7046 24.1698 13.7046 23.7862V23.2439C13.7045 23.0228 13.6542 22.8046 13.5575 22.6063C13.4609 22.4079 13.3205 22.2345 13.1471 22.0995C12.2091 21.3616 11.4496 20.4178 10.926 19.3396C10.4024 18.2614 10.1286 17.077 10.1251 15.8761C10.1019 11.568 13.5489 7.98036 17.8103 7.87731C18.8603 7.85175 19.9048 8.03862 20.8822 8.4269C21.8597 8.81519 22.7503 9.39706 23.5018 10.1383C24.2533 10.8795 24.8503 11.765 25.2579 12.7428C25.6655 13.7206 25.8753 14.7708 25.875 15.8318ZM23.0015 14.9875C22.8159 13.9401 22.317 12.9754 21.5721 12.2231C20.8271 11.4708 19.8719 10.9671 18.835 10.7798C18.7422 10.764 18.6474 10.7668 18.5557 10.7881C18.4641 10.8093 18.3775 10.8486 18.3008 10.9037C18.2242 10.9587 18.1591 11.0285 18.1092 11.109C18.0593 11.1895 18.0255 11.2791 18.0099 11.3727C17.9943 11.4664 17.997 11.5623 18.0181 11.6548C18.0391 11.7474 18.078 11.8349 18.1325 11.9123C18.187 11.9896 18.2561 12.0554 18.3358 12.1059C18.4155 12.1563 18.5042 12.1904 18.5969 12.2062C20.0797 12.4583 21.3379 13.7293 21.5894 15.2298C21.6177 15.3982 21.7042 15.551 21.8334 15.6612C21.9626 15.7714 22.1263 15.8318 22.2955 15.8318C22.3359 15.8315 22.3763 15.8282 22.4163 15.8218C22.6034 15.7895 22.7702 15.6835 22.8799 15.5271C22.9897 15.3706 23.0334 15.1765 23.0015 14.9875Z" fill="white"></path>
</svg>