<svg width="32" height="32" viewBox="0 0 32 32" fill="none" xmlns="http://www.w3.org/2000/svg">
<path d="M14.7052 21.8483C14.749 21.9798 14.761 22.1199 14.7401 22.257C14.7191 22.394 14.666 22.5242 14.5849 22.6366C14.5038 22.7491 14.3972 22.8407 14.2737 22.9039C14.1503 22.9671 14.0136 23 13.875 23H5.125C4.98634 23 4.84967 22.9671 4.72625 22.9039C4.60283 22.8407 4.49618 22.7491 4.41511 22.6366C4.33403 22.5242 4.28085 22.394 4.25994 22.257C4.23903 22.1199 4.25099 21.9798 4.29484 21.8483L8.66984 8.72328C8.72789 8.54902 8.8393 8.39744 8.9883 8.29002C9.1373 8.18261 9.31632 8.12481 9.5 8.12481C9.68368 8.12481 9.8627 8.18261 10.0117 8.29002C10.1607 8.39744 10.2721 8.54902 10.3302 8.72328L14.7052 21.8483ZM25.25 10.3125C25.25 9.18762 24.9164 8.088 24.2915 7.1527C23.6665 6.21739 22.7783 5.48841 21.739 5.05794C20.6998 4.62746 19.5562 4.51483 18.4529 4.73429C17.3497 4.95374 16.3362 5.49542 15.5408 6.29083C14.7454 7.08624 14.2037 8.09966 13.9843 9.20293C13.7648 10.3062 13.8775 11.4498 14.3079 12.489C14.7384 13.5283 15.4674 14.4165 16.4027 15.0415C17.338 15.6664 18.4376 16 19.5625 16C21.0704 15.9983 22.516 15.3985 23.5822 14.3323C24.6485 13.266 25.2483 11.8204 25.25 10.3125ZM27 17.75H17.375C17.1429 17.75 16.9204 17.8422 16.7563 18.0063C16.5922 18.1704 16.5 18.3929 16.5 18.625V24.75C16.5 24.9821 16.5922 25.2046 16.7563 25.3687C16.9204 25.5328 17.1429 25.625 17.375 25.625H27C27.2321 25.625 27.4546 25.5328 27.6187 25.3687C27.7828 25.2046 27.875 24.9821 27.875 24.75V18.625C27.875 18.3929 27.7828 18.1704 27.6187 18.0063C27.4546 17.8422 27.2321 17.75 27 17.75Z" fill="white"></path>
</svg>